<mxfile host="Electron" agent="Mozilla/5.0 (Windows NT 10.0; Win64; x64) AppleWebKit/537.36 (KHTML, like Gecko) draw.io/28.2.5 Chrome/138.0.7204.251 Electron/37.6.1 Safari/537.36" version="28.2.5">
  <diagram name="Pagina-1" id="MN7WsSKvXLgIGYer2BLl">
    <mxGraphModel dx="485" dy="339" grid="1" gridSize="10" guides="1" tooltips="1" connect="1" arrows="1" fold="1" page="1" pageScale="1" pageWidth="827" pageHeight="1169" math="1" shadow="0">
      <root>
        <mxCell id="0" />
        <mxCell id="1" parent="0" />
        <mxCell id="ddl-roebjKmBMkPWHnF6-1" value="$$b$$" style="ellipse;whiteSpace=wrap;html=1;fillColor=none;fontColor=#ffffff;strokeColor=#006EAF;sketch=1;curveFitting=1;jiggle=2;" parent="1" vertex="1">
          <mxGeometry x="357" y="300" width="40" height="40" as="geometry" />
        </mxCell>
        <mxCell id="ddl-roebjKmBMkPWHnF6-7" value="$$c$$" style="ellipse;whiteSpace=wrap;html=1;sketch=1;curveFitting=1;jiggle=2;fillColor=#1ba1e2;fontColor=#ffffff;strokeColor=#006EAF;" parent="1" vertex="1">
          <mxGeometry x="457" y="300" width="40" height="40" as="geometry" />
        </mxCell>
        <mxCell id="1LWPjxBo7xO3xVPiNzYR-4" value="" style="curved=1;endArrow=classic;html=1;rounded=0;exitX=1;exitY=0.5;exitDx=0;exitDy=0;entryX=0;entryY=0.5;entryDx=0;entryDy=0;sketch=1;curveFitting=1;jiggle=2;" parent="1" source="ddl-roebjKmBMkPWHnF6-1" target="ddl-roebjKmBMkPWHnF6-7" edge="1">
          <mxGeometry width="50" height="50" relative="1" as="geometry">
            <mxPoint x="387" y="290" as="sourcePoint" />
            <mxPoint x="427" y="250" as="targetPoint" />
            <Array as="points" />
          </mxGeometry>
        </mxCell>
        <mxCell id="1LWPjxBo7xO3xVPiNzYR-12" value="$$0,1$$" style="text;html=1;align=center;verticalAlign=middle;whiteSpace=wrap;rounded=0;fontColor=default;" parent="1" vertex="1">
          <mxGeometry x="337" y="250" width="60" height="20" as="geometry" />
        </mxCell>
        <mxCell id="opmedP2TnGrGmYKjuxaZ-14" value="&lt;div style=&quot;&quot;&gt;&lt;font face=&quot;Comic Sans MS&quot;&gt;&lt;span style=&quot;font-size: 15px;&quot;&gt;START&lt;/span&gt;&lt;/font&gt;&lt;/div&gt;" style="text;whiteSpace=wrap;html=1;align=center;" parent="1" vertex="1">
          <mxGeometry x="287" y="320" width="60" height="30" as="geometry" />
        </mxCell>
        <mxCell id="lpgbFSDSMAnK1BwwCrsC-3" value="$$0,1$$" style="text;html=1;align=center;verticalAlign=middle;whiteSpace=wrap;rounded=0;fontColor=default;" vertex="1" parent="1">
          <mxGeometry x="457" y="250" width="60" height="20" as="geometry" />
        </mxCell>
        <mxCell id="lpgbFSDSMAnK1BwwCrsC-5" value="" style="curved=1;endArrow=classic;html=1;rounded=0;entryX=0;entryY=0.5;entryDx=0;entryDy=0;sketch=1;curveFitting=1;jiggle=2;" edge="1" parent="1" target="ddl-roebjKmBMkPWHnF6-1">
          <mxGeometry width="50" height="50" relative="1" as="geometry">
            <mxPoint x="307" y="320" as="sourcePoint" />
            <mxPoint x="337" y="319.72" as="targetPoint" />
            <Array as="points" />
          </mxGeometry>
        </mxCell>
        <mxCell id="lpgbFSDSMAnK1BwwCrsC-25" value="" style="curved=1;endArrow=classic;html=1;rounded=0;exitX=0.5;exitY=0;exitDx=0;exitDy=0;sketch=1;curveFitting=1;jiggle=2;entryX=0;entryY=0;entryDx=0;entryDy=0;" edge="1" parent="1" source="ddl-roebjKmBMkPWHnF6-1" target="ddl-roebjKmBMkPWHnF6-1">
          <mxGeometry width="50" height="50" relative="1" as="geometry">
            <mxPoint x="377" y="294" as="sourcePoint" />
            <mxPoint x="363" y="300" as="targetPoint" />
            <Array as="points">
              <mxPoint x="377" y="270" />
              <mxPoint x="337" y="280" />
            </Array>
          </mxGeometry>
        </mxCell>
        <mxCell id="lpgbFSDSMAnK1BwwCrsC-26" value="" style="curved=1;endArrow=classic;html=1;rounded=0;exitX=0.5;exitY=0;exitDx=0;exitDy=0;sketch=1;curveFitting=1;jiggle=2;entryX=0;entryY=0;entryDx=0;entryDy=0;" edge="1" parent="1" source="ddl-roebjKmBMkPWHnF6-7" target="ddl-roebjKmBMkPWHnF6-7">
          <mxGeometry width="50" height="50" relative="1" as="geometry">
            <mxPoint x="477" y="294" as="sourcePoint" />
            <mxPoint x="463" y="300" as="targetPoint" />
            <Array as="points">
              <mxPoint x="477" y="270" />
              <mxPoint x="437" y="280" />
            </Array>
          </mxGeometry>
        </mxCell>
      </root>
    </mxGraphModel>
  </diagram>
</mxfile>
